{"title":"Hannah Montana The Movie","uid":5284369,"size":733980751,"categoryP":"video","categoryS":"movies","magnet":"?xt=urn:btih:166ab21cbcefd9975f49b1d64470e251de8d85c0&amp;dn=Hannah+Montana+The+Movie&amp;tr=udp%3A%2F%2Ftracker.openbittorrent.com%3A80&amp;tr=udp%3A%2F%2Fopen.demonii.com%3A1337&amp;tr=udp%3A%2F%2Ftracker.coppersurfer.tk%3A6969&amp;tr=udp%3A%2F%2Fexodus.desync.com%3A6969","seeders":3,"leechers":0,"uploader":"SlskUser","files":-1,"time":1263661392,"description":"=========================\nHannah Montana The Movie\n=========================\n\nTorrent Name:\n\nHannah Montana The Movie - DVDrip - AVIdeo - SlskUser\n\n\nPart Musical\n- with popular songs of 2009, such as, &quot;The Climb&quot; and &quot;Crazier&quot;\n\nStarring:\n\nMylie Cyrus as Hannah Montana\n\n\n----------------\nTechnical INFO:\n----------------\n\n3 Files:\n_ Hannah Montana The Movie - Miley Cyrus - 2009.avi\n_ hannah_montana_the_movie_2009_retail_cd-front.jpg\n  this file below:\n_ Hannah Montana The Movie - Miley Cyrus - 2009_avi_INFO_TEXT.txt\n\n.....................................................................\n\n..Hannah Montana The Movie - Miley Cyrus - 2009.avi\nFormat                           : AVI\nFormat/Info                      : Audio Video Interleave\nFile size                        : 700 MiB\nDuration                         : 1h 42mn\nOverall bit rate                 : 956 Kbps\nWriting application              : VirtualDubMod 1.5.10.2 (build 2540/release)\nWriting library                  : VirtualDubMod build 2540/release\n\nVideo\nFormat                           : MPEG-4 Visual\nFormat profile                   : Streaming Video@L1\nFormat settings, BVOP            : Yes\nFormat settings, QPel            : No\nFormat settings, GMC             : No warppoints\nFormat settings, Matrix          : Default\nMuxing mode                      : Packed bitstream\nCodec ID                         : DX50\nCodec ID/Hint                    : DivX 5\nDuration                         : 1h 42mn\nBit rate                         : 819 Kbps\nWidth                            : 608 pixels\nHeight                           : 320 pixels\nDisplay aspect ratio             : 1.900\nFrame rate                       : 23.976 fps\nResolution                       : 24 bits\nColorimetry                      : 4:2:0\nScan type                        : Progressive\nBits/(Pixel*Frame)               : 0.175\nStream size                      : 599 MiB (86%)\nWriting library                  : XviD 1.2.0.dev47 (UTC 2006-11-01)\n\nAudio\nFormat                           : MPEG Audio\nFormat version                   : Version 1\nFormat profile                   : Layer 3\nCodec ID                         : 55\nCodec ID/Hint                    : MP3\nDuration                         : 1h 42mn\nBit rate mode                    : Constant\nBit rate                         : 128 Kbps\nChannel(s)                       : 2 channels\nSampling rate                    : 48.0 KHz\nResolution                       : 16 bits\nStream size                      : 93.7 MiB (13%)\nAlignment                        : Aligned on interleaves\nInterleave, duration             : 42 ms (1.00 video frame)\nInterleave, preload duration     : 504 ms\n\n","torrent":{"xt":"urn:btih:166ab21cbcefd9975f49b1d64470e251de8d85c0","amp;dn":"Hannah+Montana+The+Movie","amp;tr":["udp%3A%2F%2Ftracker.openbittorrent.com%3A80","udp%3A%2F%2Fopen.demonii.com%3A1337","udp%3A%2F%2Ftracker.coppersurfer.tk%3A6969","udp%3A%2F%2Fexodus.desync.com%3A6969"],"infoHash":"166ab21cbcefd9975f49b1d64470e251de8d85c0","infoHashBuffer":{"type":"Buffer","data":[22,106,178,28,188,239,217,151,95,73,177,214,68,112,226,81,222,141,133,192]},"announce":[],"urlList":[]}}